<!-- Generator: Adobe Illustrator 24.1.0, SVG Export Plug-In  -->
<svg version="1.1" xmlns="http://www.w3.org/2000/svg" xmlns:xlink="http://www.w3.org/1999/xlink" x="0px" y="0px" width="93.5px"
	 height="82.1px" viewBox="0 0 93.5 82.1" style="enable-background:new 0 0 93.5 82.1;" xml:space="preserve">
<style type="text/css">
	.st0{fill:url(#SVGID_1_);}
	.st1{fill:url(#SVGID_2_);}
	.st2{fill:#98AD55;}
	.st3{fill:url(#SVGID_3_);}
	.st4{fill:url(#SVGID_4_);}
	.st5{fill:#4C5324;}
	.st6{fill:url(#SVGID_5_);}
	.st7{fill:url(#SVGID_6_);}
	.st8{fill:url(#SVGID_7_);}
	.st9{fill:url(#SVGID_8_);}
</style>
<defs>
</defs>
<g>
	<g>
		<linearGradient id="SVGID_1_" gradientUnits="userSpaceOnUse" x1="55.2019" y1="77.0396" x2="55.2019" y2="57.9905">
			<stop  offset="0" style="stop-color:#F6E0A4"/>
			<stop  offset="1" style="stop-color:#F0D192"/>
		</linearGradient>
		<path class="st0" d="M54.8,69.9h5.1c0.8,0,1.5,0.7,1.5,1.5v3.2h-8c-2.4,0-4.4-2-4.4-4.4v-0.7l6.1-5.3h-4.5c-0.8,0-1.5-0.7-1.5-1.5
			v-3.2h7.6c2.4,0,4.4,2,4.4,4.4v0.3L54.8,69.9z"/>
		<linearGradient id="SVGID_2_" gradientUnits="userSpaceOnUse" x1="85.7059" y1="77.0396" x2="85.7059" y2="57.9905">
			<stop  offset="0" style="stop-color:#F6E0A4"/>
			<stop  offset="1" style="stop-color:#F0D192"/>
		</linearGradient>
		<path class="st1" d="M92,61.1c1,1.2,1.5,2.7,1.5,4.7v8.7h-5.2v-8.1c0-0.9-0.2-1.6-0.7-2.1c-0.5-0.5-1.1-0.7-1.8-0.7
			c-0.8,0-1,0.3-1.4,0.8c-0.5,0.5-0.7,1.2-0.7,2.1v8h-5.7v-15h3.7c0.9,0,1.6,0.7,1.6,1.6V62c0.4-0.8,1.1-1.4,1.9-1.9
			c0.8-0.5,1.8-0.7,2.9-0.7C89.7,59.4,91,59.9,92,61.1z"/>
		<path class="st2" d="M9.7,70.2c-0.2,0.4-1,1.1-2.2,1.1c-1.3,0-2.5-0.8-2.6-2.5h9.6c0.1-0.3,0.1-0.7,0.1-0.8c0-1.5-0.2-2.7-0.8-4
			c-0.1-0.3-0.3-0.6-0.4-1c-1.3-2.6-3.5-4.5-6-4.5c-2.8,0-5.2,2.4-6.4,5.4C0.3,65.4,0,66.9,0,68.4c0,2.4,0.9,4.3,2.3,5.4
			c1.3,1.1,3.1,1.6,5,1.6c1.9,0,3.7-0.5,5-1.6c0.4-0.3,0.7-0.7,1-1c0.5-0.7,0.9-1.5,1-2.5H9.7z M5.7,64.6c0.4-0.6,0.9-1,1.6-1
			c1.2,0,1.9,1.3,2.1,2.3H5.1C5.2,65.4,5.4,65,5.7,64.6z"/>
		<linearGradient id="SVGID_3_" gradientUnits="userSpaceOnUse" x1="69.65" y1="77.0396" x2="69.65" y2="57.9905">
			<stop  offset="0" style="stop-color:#F6E0A4"/>
			<stop  offset="1" style="stop-color:#F0D192"/>
		</linearGradient>
		<path class="st3" d="M69.9,71.4c-1.3,0-2.5-0.8-2.6-2.5h9.6c0.1-0.3,0.1-0.7,0.1-0.8c0-1.5-0.2-2.7-0.8-4c-0.1-0.3-0.3-0.6-0.4-1
			c-1.3-2.6-3.5-4.5-6-4.5c-2.8,0-5.2,2.4-6.4,5.4c-0.6,1.4-0.9,2.9-0.9,4.4c0,2.4,0.9,4.3,2.3,5.4c1.3,1.1,3.1,1.6,5,1.6
			c1.9,0,3.7-0.5,5-1.6c0.4-0.3,0.7-0.7,1-1c0.5-0.7,0.9-1.5,1-2.5h-4.8C71.8,70.7,71.2,71.4,69.9,71.4z M68.1,64.6
			c0.4-0.6,0.9-1,1.6-1c1.2,0,1.9,1.3,2.1,2.3h-4.4C67.6,65.4,67.8,65,68.1,64.6z"/>
		<path class="st2" d="M27.6,59.5c-0.9,0-1.6,0.7-1.6,1.6v0.7c-1.1-1.5-2.6-2.5-4.2-2.5c-2.4,0-4.5,2.2-5.5,5
			c-0.5,1.3-0.8,2.7-0.8,4c0,2.2,0.8,3.9,2,5c1.1,1,2.6,1.5,4.3,1.5c1.6,0,3.1-0.5,4.2-1.4v1c0,0.9,0,1.8-0.4,2.7
			c-0.4,0.9-1.2,1.8-2.2,1.8c-1.4,0-2.3-1.7-2.3-3.1c0,0-5.3,0-5.3,0c0,3.3,2.7,5.8,5.8,6.3c0.6,0.1,1.5,0.1,2.1,0.1
			c2.8,0,5.8-1.9,6.8-4c0.5-1.1,0.8-2.4,0.8-3.8V59.5H27.6z M25.9,70.1c-0.1,0.2-0.2,0.3-0.4,0.5c-0.5,0.5-1.2,0.7-1.9,0.7
			c-0.7,0-1.4-0.3-1.9-0.7c-0.6-0.5-0.9-1.4-0.9-2.5c0-0.7,0.1-1.4,0.3-2c0.5-1.4,1.4-2.5,2.5-2.5c1,0,1.8,0.9,2.3,2.1
			c0.1,0.1,0.1,0.3,0.2,0.4c0.2,0.6,0.3,1.4,0.3,2C26.5,68.9,26.3,69.6,25.9,70.1z"/>
		<path class="st2" d="M44.4,59.5c-0.9,0-1.6,0.7-1.6,1.6v0.7c-1.1-1.5-2.6-2.5-4.2-2.5c-2.4,0-4.5,2.2-5.5,5
			c-0.5,1.3-0.8,2.7-0.8,4c0,2.2,0.8,3.9,2,5c1.1,1,2.6,1.5,4.3,1.5c1.6,0,3.1-0.5,4.2-1.4v1c0,0.9,0,1.8-0.4,2.7
			c-0.4,0.9-1.2,1.8-2.2,1.8c-1.4,0-2.3-1.7-2.3-3.1c0,0-5.3,0-5.3,0c0,3.3,2.7,5.8,5.8,6.3c0.6,0.1,1.5,0.1,2.1,0.1
			c2.8,0,5.8-1.9,6.8-4c0.5-1.1,0.8-2.4,0.8-3.8V59.5H44.4z M42.7,70.1c-0.1,0.2-0.2,0.3-0.4,0.5c-0.5,0.5-1.2,0.7-1.9,0.7
			c-0.7,0-1.4-0.3-1.9-0.7c-0.6-0.5-0.9-1.4-0.9-2.5c0-0.7,0.1-1.4,0.3-2c0.5-1.4,1.4-2.5,2.5-2.5c1,0,1.8,0.9,2.3,2.1
			c0.1,0.1,0.1,0.3,0.2,0.4c0.2,0.6,0.3,1.4,0.3,2C43.2,68.9,43,69.6,42.7,70.1z"/>
	</g>
	<g>
		<path class="st2" d="M51.4,1c5,5.2-2.4,22.5-13.9,22.5h7C64.6,23.4,64.5,8.8,51.4,1"/>
		<path class="st2" d="M62.4,18.2c-0.8,4.1-3.9,9.3-14.7,11.8c-0.7,0.2-1.2,0.7-1.4,1.4c-0.8,3.5-2.4,7.7-4.3,9.8
			c0.4,0.4,0.8,0.9,1.3,1.2c2.3,2,5,3.3,8.1,4c3.1-0.7,5.9-2,8.1-4c3.7-3.3,6-7.4,6-14.2c0-3.2-0.6-6.5-2-10.2
			C63.3,17.5,62.5,17.6,62.4,18.2z"/>
		<linearGradient id="SVGID_4_" gradientUnits="userSpaceOnUse" x1="28.0111" y1="22.3591" x2="52.971" y2="22.3591">
			<stop  offset="0" style="stop-color:#F0D192"/>
			<stop  offset="1" style="stop-color:#F6E0A4"/>
		</linearGradient>
		<path class="st4" d="M37.5,23.4c-0.2,1.3-0.2,2.6-0.2,3.9c0,6,1.8,10.6,4.7,13.9c-0.4,0.4-0.8,0.9-1.3,1.2c-1,0.9-2.2,1.7-3.4,2.3
			c-1.2-0.6-2.3-1.4-3.4-2.3c-3.7-3.3-6-8.3-6-15.1c0-4.1,0.8-8.3,2.3-12.1C33.5,6.8,39.7,0,46.8,0c1.6,0,3.1,0.3,4.6,1
			C56.4,6.2,49,23.4,37.5,23.4z"/>
		<path class="st5" d="M42,41.2c-0.4,0.4-0.8,0.9-1.3,1.2c-1,0.9-2.2,1.7-3.4,2.3c0,0,0,0,0,0c0,0,0,0,0.1,0c0.3,0.2,0.7,0.3,1,0.5
			c0.1,0,0.1,0,0.2,0.1c0.3,0.1,0.6,0.2,0.9,0.3c0.1,0,0.1,0,0.2,0.1c0.3,0.1,0.7,0.2,1,0.3c0.1,0,0.1,0,0.2,0
			c0.3,0.1,0.6,0.2,0.9,0.2c0.1,0,0.2,0,0.3,0.1c0.3,0.1,0.5,0.1,0.8,0.2c0.1,0,0.2,0,0.3,0c0.3,0.1,0.7,0.1,1,0.1
			c0.1,0,0.2,0,0.3,0c0.3,0,0.5,0,0.8,0.1c0.1,0,0.3,0,0.4,0c0.3,0,0.7,0,1,0c0,0,0.1,0,0.1,0c0.4,0,0.7,0,1.1,0c0.1,0,0.2,0,0.2,0
			c0.3,0,0.6,0,0.9-0.1c0.1,0,0.2,0,0.3,0c0.3,0,0.6-0.1,1-0.1c0,0,0.1,0,0.1,0c0.4-0.1,0.7-0.1,1.1-0.2c0,0,0,0,0,0
			c-3.1-0.7-5.9-2-8.1-4C42.8,42,42.4,41.6,42,41.2z"/>
	</g>
</g>
</svg>
