<!-- Generator: Adobe Illustrator 24.1.0, SVG Export Plug-In  -->
<svg version="1.1" xmlns="http://www.w3.org/2000/svg" xmlns:xlink="http://www.w3.org/1999/xlink" x="0px" y="0px"
	 width="109.54px" height="27.59px" viewBox="0 0 109.54 27.59" style="enable-background:new 0 0 109.54 27.59;"
	 xml:space="preserve">
<style type="text/css">
	.st0{fill:#FFFFFF;}
</style>
<defs>
</defs>
<path class="st0" d="M64.19,13.21h6.02c0.94,0,1.71,0.76,1.71,1.71v3.75h-9.38c-2.83,0-5.12-2.29-5.12-5.12v-0.77l7.16-6.26h-5.33
	c-0.94,0-1.71-0.76-1.71-1.71V1.05h8.94c2.83,0,5.12,2.29,5.12,5.12v0.4L64.19,13.21z"/>
<path class="st0" d="M107.81,2.92c1.15,1.35,1.73,3.19,1.73,5.51v10.23h-6.12V9.22c0-1.03-0.27-1.83-0.8-2.4
	c-0.53-0.58-1.25-0.86-2.15-0.86c-0.92,0-1.14,0.3-1.69,0.89c-0.54,0.6-0.82,1.42-0.82,2.46v9.36h-6.7V1.05h4.32
	c1.03,0,1.86,0.83,1.86,1.86v1.09c0.5-0.94,1.23-1.7,2.2-2.26c0.96-0.57,2.09-0.85,3.39-0.85C105.07,0.9,106.66,1.57,107.81,2.92z"
	/>
<path class="st0" d="M11.4,13.64c-0.21,0.53-1.12,1.34-2.6,1.34c-1.57,0-2.98-0.96-3.08-2.87h11.22c0.08-0.39,0.09-0.77,0.09-0.98
	c0-1.71-0.24-3.12-0.9-4.74C15.97,6,15.8,5.63,15.6,5.27C14.05,2.27,11.48,0,8.58,0C5.34,0,2.51,2.84,1.04,6.38
	C0.39,8,0,9.78,0,11.49c0,2.86,1.06,4.99,2.75,6.36c1.54,1.24,3.59,1.87,5.84,1.87c2.26,0,4.31-0.63,5.84-1.87
	c0.44-0.36,0.84-0.77,1.18-1.23c0.63-0.83,1.06-1.82,1.18-2.98H11.4z M6.7,7c0.47-0.66,1.11-1.16,1.92-1.16
	c1.41,0,2.18,1.48,2.44,2.74h-5.1C6.11,8.02,6.37,7.48,6.7,7z"/>
<path class="st0" d="M81.88,14.98c-1.57,0-2.98-0.96-3.08-2.87h11.22c0.08-0.39,0.09-0.77,0.09-0.98c0-1.71-0.24-3.12-0.89-4.74
	C89.05,6,88.88,5.63,88.68,5.27C87.13,2.27,84.56,0,81.66,0c-3.24,0-6.08,2.84-7.54,6.38c-0.66,1.62-1.04,3.39-1.04,5.11
	c0,2.86,1.06,4.99,2.75,6.36c1.54,1.24,3.59,1.87,5.84,1.87c2.26,0,4.31-0.63,5.83-1.87c0.44-0.36,0.84-0.77,1.18-1.23
	c0.62-0.83,1.07-1.81,1.19-2.98h-5.61C84.09,14.17,83.36,14.98,81.88,14.98z M79.78,7c0.47-0.66,1.11-1.16,1.92-1.16
	c1.4,0,2.18,1.48,2.44,2.74h-5.1C79.19,8.02,79.45,7.48,79.78,7z"/>
<path class="st0" d="M32.35,1.06c-1.03,0-1.86,0.83-1.86,1.86v0.85c-1.3-1.76-3.02-2.94-4.91-2.94c-2.8,0-5.23,2.6-6.48,5.84
	c-0.58,1.49-0.9,3.11-0.9,4.67c0,2.62,0.91,4.56,2.37,5.82c1.32,1.14,3.08,1.72,5.02,1.72c1.89,0,3.6-0.54,4.91-1.62v1.21
	c0,1.06-0.06,2.16-0.45,3.15c-0.43,1.08-1.37,2.11-2.61,2.11c-1.64,0-2.64-2.03-2.73-3.67l-6.26,0c0,3.82,3.15,6.74,6.78,7.36
	c0.73,0.12,1.73,0.16,2.47,0.16c3.32,0,6.85-2.19,8.02-4.67c0.62-1.33,0.94-2.81,0.94-4.44V1.06H32.35z M30.39,13.45
	c-0.13,0.22-0.29,0.41-0.46,0.58c-0.59,0.58-1.39,0.88-2.26,0.88c-0.87,0-1.67-0.3-2.26-0.88c-0.65-0.64-1.06-1.64-1.06-2.97
	c0-0.8,0.15-1.63,0.41-2.39c0.57-1.66,1.66-2.98,2.92-2.98c1.12,0,2.12,1.06,2.72,2.46c0.08,0.17,0.14,0.34,0.2,0.52
	C30.85,9.43,31,10.26,31,11.06C31,12.05,30.77,12.85,30.39,13.45z"/>
<path class="st0" d="M51.96,1.06c-1.03,0-1.86,0.83-1.86,1.86v0.85c-1.3-1.76-3.02-2.94-4.91-2.94c-2.8,0-5.23,2.6-6.48,5.84
	c-0.58,1.49-0.9,3.11-0.9,4.67c0,2.62,0.91,4.56,2.37,5.82c1.32,1.14,3.08,1.72,5.02,1.72c1.89,0,3.6-0.54,4.91-1.62v1.21
	c0,1.06-0.06,2.16-0.45,3.15c-0.43,1.08-1.37,2.11-2.61,2.11c-1.64,0-2.64-2.03-2.73-3.67l-6.26,0c0,3.82,3.15,6.74,6.78,7.36
	c0.73,0.12,1.73,0.16,2.47,0.16c3.32,0,6.85-2.19,8.02-4.67c0.62-1.33,0.94-2.81,0.94-4.44V1.06H51.96z M50.01,13.45
	c-0.13,0.22-0.29,0.41-0.46,0.58c-0.59,0.58-1.39,0.88-2.26,0.88c-0.87,0-1.67-0.3-2.26-0.88c-0.65-0.64-1.06-1.64-1.06-2.97
	c0-0.8,0.15-1.63,0.41-2.39c0.57-1.66,1.66-2.98,2.92-2.98c1.12,0,2.12,1.06,2.72,2.46c0.08,0.17,0.14,0.34,0.2,0.52
	c0.26,0.76,0.41,1.59,0.41,2.39C50.61,12.05,50.39,12.85,50.01,13.45z"/>
</svg>
