<!-- Generator: Adobe Illustrator 24.1.0, SVG Export Plug-In  -->
<svg version="1.1" xmlns="http://www.w3.org/2000/svg" xmlns:xlink="http://www.w3.org/1999/xlink" x="0px" y="0px" width="37.5px"
	 height="46.9px" viewBox="0 0 37.5 46.9" style="enable-background:new 0 0 37.5 46.9;" xml:space="preserve">
<style type="text/css">
	.st0{fill:none;}
	.st1{fill:#98AD55;}
	.st2{fill:url(#SVGID_1_);}
	.st3{fill:url(#SVGID_2_);}
	.st4{fill:url(#SVGID_3_);}
	.st5{fill:url(#SVGID_4_);}
	.st6{fill:#4C5324;}
	.st7{fill:url(#SVGID_5_);}
	.st8{fill:url(#SVGID_6_);}
	.st9{fill:url(#SVGID_7_);}
	.st10{fill:url(#SVGID_8_);}
</style>
<defs>
</defs>
<g>
	<path class="st0" d="M16.6,43.5c-0.5-0.3-0.9-0.7-1.3-1.1c-0.4-0.4-0.9-0.8-1.3-1.2c0.4,0.4,0.8,0.9,1.3,1.2
		C15.7,42.8,16.1,43.1,16.6,43.5z"/>
	<path class="st0" d="M24.8,4.2c1.1,6.9-5.6,19.1-15.2,19.2C19.3,23.3,26,11.1,24.8,4.2z"/>
	<path class="st1" d="M9.6,23.4c0,0-0.1,0-0.1,0c0,0,0,0,0,0h6.9c20.2,0,20-14.6,7-22.5c0.8,0.8,1.3,1.9,1.5,3.2
		C26,11.1,19.3,23.3,9.6,23.4z"/>
	<polygon class="st1" points="23.4,1 23.4,1 23.4,1 	"/>
	<path class="st1" d="M35.5,18.1c-0.2-0.5-1-0.5-1.1,0.1c-0.8,4.1-3.9,9.3-14.7,11.8c-0.7,0.2-1.2,0.7-1.4,1.4
		c-0.8,3.5-2.4,7.7-4.3,9.8c0.4,0.4,0.8,0.9,1.3,1.2c0.4,0.4,0.9,0.7,1.3,1.1s0.9,0.6,1.4,0.9c1,0.6,2,1,3.1,1.4
		c0.7,0.2,1.5,0.5,2.2,0.6c0,0,0,0,0,0c0,0,0,0,0,0c3.1-0.7,5.9-2,8.1-4c3.7-3.3,6-7.4,6-14.2C37.5,25,36.9,21.7,35.5,18.1z"/>
	<linearGradient id="SVGID_1_" gradientUnits="userSpaceOnUse" x1="0" y1="22.3586" x2="24.9599" y2="22.3586">
		<stop  offset="0" style="stop-color:#F0D192"/>
		<stop  offset="1" style="stop-color:#F6E0A4"/>
	</linearGradient>
	<path class="st2" d="M13,42.1c0.3-0.3,0.7-0.6,1-1c-2.9-3.3-4.7-7.9-4.7-13.9c0-1.3,0.1-2.6,0.2-3.9h0c0,0,0.1,0,0.1,0
		C19.2,23.3,26,11.1,24.8,4.2c-0.2-1.3-0.7-2.4-1.5-3.2l0,0c-1.5-0.6-3-1-4.6-1C11.7,0,5.5,6.8,2.3,15.2C0.8,19,0,23.2,0,27.3
		c0,6.8,2.3,11.8,6,15.1c1,0.9,2.2,1.7,3.4,2.3c1.2-0.6,2.4-1.4,3.4-2.3C12.8,42.3,12.9,42.2,13,42.1z"/>
	<linearGradient id="SVGID_2_" gradientUnits="userSpaceOnUse" x1="18.4916" y1="0.9689" x2="28.2572" y2="0.9689">
		<stop  offset="0" style="stop-color:#F0D192"/>
		<stop  offset="1" style="stop-color:#F6E0A4"/>
	</linearGradient>
	<polygon class="st3" points="23.4,1 23.4,1 23.4,1 	"/>
	<path class="st1" d="M9.6,23.4c0,0-0.1,0-0.1,0h0c0,0,0,0,0,0C9.5,23.4,9.6,23.4,9.6,23.4z"/>
	<linearGradient id="SVGID_3_" gradientUnits="userSpaceOnUse" x1="-2.186822e-05" y1="23.434" x2="24.9599" y2="23.434">
		<stop  offset="0" style="stop-color:#F0D192"/>
		<stop  offset="1" style="stop-color:#F6E0A4"/>
	</linearGradient>
	<path class="st4" d="M9.6,23.4c0,0-0.1,0-0.1,0h0c0,0,0,0,0,0C9.5,23.4,9.6,23.4,9.6,23.4z"/>
	<path class="st1" d="M24.8,4.2c-0.2-1.3-0.7-2.4-1.5-3.2c0,0,0,0,0,0c0,0,0,0,0,0l0,0C24.2,1.8,24.6,2.9,24.8,4.2z"/>
	<linearGradient id="SVGID_4_" gradientUnits="userSpaceOnUse" x1="-2.186822e-05" y1="2.5787" x2="24.9599" y2="2.5787">
		<stop  offset="0" style="stop-color:#F0D192"/>
		<stop  offset="1" style="stop-color:#F6E0A4"/>
	</linearGradient>
	<path class="st5" d="M24.8,4.2c-0.2-1.3-0.7-2.4-1.5-3.2c0,0,0,0,0,0c0,0,0,0,0,0l0,0C24.2,1.8,24.6,2.9,24.8,4.2z"/>
	<path class="st6" d="M21.1,45.8C20,45.4,19,44.9,18,44.4c-0.5-0.3-1-0.6-1.4-0.9s-0.9-0.7-1.3-1.1c-0.4-0.4-0.9-0.8-1.3-1.2
		c-0.3,0.3-0.6,0.6-1,1c-0.1,0.1-0.2,0.2-0.3,0.3c-1,0.9-2.2,1.7-3.4,2.3c0,0,0,0,0,0c0,0,0,0,0,0c0,0,0,0,0.1,0
		c0.3,0.2,0.7,0.3,1,0.5c0,0,0.1,0,0.2,0.1c0.3,0.1,0.6,0.2,0.9,0.3c0.1,0,0.1,0,0.2,0.1c0.3,0.1,0.7,0.2,1,0.3c0.1,0,0.1,0,0.2,0
		c0.3,0.1,0.6,0.2,0.9,0.2c0.1,0,0.2,0,0.3,0.1c0.3,0.1,0.5,0.1,0.8,0.2c0.1,0,0.2,0,0.3,0c0.3,0.1,0.7,0.1,1,0.1c0.1,0,0.2,0,0.3,0
		c0.3,0,0.5,0,0.8,0.1c0.1,0,0.3,0,0.4,0c0.3,0,0.7,0,1,0c0,0,0.1,0,0.1,0c0.4,0,0.7,0,1.1,0c0.1,0,0.2,0,0.2,0c0.3,0,0.6,0,0.9-0.1
		c0.1,0,0.2,0,0.3,0c0.3,0,0.6-0.1,1-0.1c0,0,0.1,0,0.1,0c0.4-0.1,0.7-0.1,1.1-0.2c0,0,0,0,0,0c0,0,0,0,0,0
		C22.6,46.2,21.8,46,21.1,45.8z"/>
</g>
</svg>
