<!-- Generator: Adobe Illustrator 24.1.0, SVG Export Plug-In  -->
<svg version="1.1" xmlns="http://www.w3.org/2000/svg" xmlns:xlink="http://www.w3.org/1999/xlink" x="0px" y="0px" width="84.4px"
	 height="21.3px" viewBox="0 0 84.4 21.3" style="enable-background:new 0 0 84.4 21.3;" xml:space="preserve">
<style type="text/css">
	.st0{fill:#F4F4F5;}
	.st1{fill:#98AD55;}
</style>
<defs>
</defs>
<g>
	<g>
		<path class="st0" d="M49.5,10.2h4.6c0.7,0,1.3,0.6,1.3,1.3v2.9h-7.2c-2.2,0-3.9-1.8-3.9-3.9V9.8L49.8,5h-4.1
			c-0.7,0-1.3-0.6-1.3-1.3V0.8h6.9c2.2,0,3.9,1.8,3.9,3.9v0.3L49.5,10.2z"/>
		<path class="st0" d="M83.1,2.3c0.9,1,1.3,2.5,1.3,4.2v7.9h-4.7V7.1c0-0.8-0.2-1.4-0.6-1.9c-0.4-0.4-1-0.7-1.7-0.7
			c-0.7,0-0.9,0.2-1.3,0.7c-0.4,0.5-0.6,1.1-0.6,1.9v7.2h-5.2V0.8h3.3c0.8,0,1.4,0.6,1.4,1.4v0.8c0.4-0.7,1-1.3,1.7-1.7
			c0.7-0.4,1.6-0.7,2.6-0.7C81,0.7,82.2,1.2,83.1,2.3z"/>
		<path class="st1" d="M8.8,10.5c-0.2,0.4-0.9,1-2,1c-1.2,0-2.3-0.7-2.4-2.2H13c0.1-0.3,0.1-0.6,0.1-0.8c0-1.3-0.2-2.4-0.7-3.7
			c-0.1-0.3-0.3-0.6-0.4-0.9C10.8,1.7,8.8,0,6.6,0C4.1,0,1.9,2.2,0.8,4.9C0.3,6.2,0,7.5,0,8.9c0,2.2,0.8,3.8,2.1,4.9
			c1.2,1,2.8,1.4,4.5,1.4c1.7,0,3.3-0.5,4.5-1.4c0.3-0.3,0.6-0.6,0.9-0.9c0.5-0.6,0.8-1.4,0.9-2.3H8.8z M5.2,5.4
			C5.5,4.9,6,4.5,6.6,4.5c1.1,0,1.7,1.1,1.9,2.1H4.6C4.7,6.2,4.9,5.8,5.2,5.4z"/>
		<path class="st0" d="M63.1,11.5c-1.2,0-2.3-0.7-2.4-2.2h8.6c0.1-0.3,0.1-0.6,0.1-0.8c0-1.3-0.2-2.4-0.7-3.7
			c-0.1-0.3-0.3-0.6-0.4-0.9C67.1,1.7,65.2,0,62.9,0c-2.5,0-4.7,2.2-5.8,4.9c-0.5,1.2-0.8,2.6-0.8,3.9c0,2.2,0.8,3.8,2.1,4.9
			c1.2,1,2.8,1.4,4.5,1.4c1.7,0,3.3-0.5,4.5-1.4c0.3-0.3,0.6-0.6,0.9-0.9c0.5-0.6,0.8-1.4,0.9-2.3h-4.3
			C64.8,10.9,64.2,11.5,63.1,11.5z M61.5,5.4c0.4-0.5,0.9-0.9,1.5-0.9c1.1,0,1.7,1.1,1.9,2.1h-3.9C61,6.2,61.2,5.8,61.5,5.4z"/>
		<path class="st1" d="M24.9,0.8c-0.8,0-1.4,0.6-1.4,1.4v0.7c-1-1.4-2.3-2.3-3.8-2.3c-2.2,0-4,2-5,4.5C14.3,6.3,14,7.5,14,8.7
			c0,2,0.7,3.5,1.8,4.5c1,0.9,2.4,1.3,3.9,1.3c1.5,0,2.8-0.4,3.8-1.2v0.9c0,0.8,0,1.7-0.3,2.4c-0.3,0.8-1.1,1.6-2,1.6
			c-1.3,0-2-1.6-2.1-2.8l-4.8,0c0,2.9,2.4,5.2,5.2,5.7c0.6,0.1,1.3,0.1,1.9,0.1c2.6,0,5.3-1.7,6.2-3.6c0.5-1,0.7-2.2,0.7-3.4V0.8
			H24.9z M23.4,10.4c-0.1,0.2-0.2,0.3-0.4,0.4c-0.5,0.4-1.1,0.7-1.7,0.7c-0.7,0-1.3-0.2-1.7-0.7c-0.5-0.5-0.8-1.3-0.8-2.3
			c0-0.6,0.1-1.3,0.3-1.8c0.4-1.3,1.3-2.3,2.2-2.3c0.9,0,1.6,0.8,2.1,1.9c0.1,0.1,0.1,0.3,0.2,0.4c0.2,0.6,0.3,1.2,0.3,1.8
			C23.9,9.3,23.7,9.9,23.4,10.4z"/>
		<path class="st1" d="M40,0.8c-0.8,0-1.4,0.6-1.4,1.4v0.7c-1-1.4-2.3-2.3-3.8-2.3c-2.2,0-4,2-5,4.5c-0.4,1.1-0.7,2.4-0.7,3.6
			c0,2,0.7,3.5,1.8,4.5c1,0.9,2.4,1.3,3.9,1.3c1.5,0,2.8-0.4,3.8-1.2v0.9c0,0.8,0,1.7-0.3,2.4c-0.3,0.8-1.1,1.6-2,1.6
			c-1.3,0-2-1.6-2.1-2.8l-4.8,0c0,2.9,2.4,5.2,5.2,5.7c0.6,0.1,1.3,0.1,1.9,0.1c2.6,0,5.3-1.7,6.2-3.6c0.5-1,0.7-2.2,0.7-3.4V0.8H40
			z M38.5,10.4c-0.1,0.2-0.2,0.3-0.4,0.4c-0.5,0.4-1.1,0.7-1.7,0.7c-0.7,0-1.3-0.2-1.7-0.7c-0.5-0.5-0.8-1.3-0.8-2.3
			c0-0.6,0.1-1.3,0.3-1.8c0.4-1.3,1.3-2.3,2.2-2.3c0.9,0,1.6,0.8,2.1,1.9c0.1,0.1,0.1,0.3,0.2,0.4C38.9,7.3,39,7.9,39,8.5
			C39,9.3,38.8,9.9,38.5,10.4z"/>
	</g>
</g>
</svg>
