<!-- Generator: Adobe Illustrator 24.1.0, SVG Export Plug-In  -->
<svg version="1.1" xmlns="http://www.w3.org/2000/svg" xmlns:xlink="http://www.w3.org/1999/xlink" x="0px" y="0px" width="19.66px"
	 height="23.98px" viewBox="0 0 19.66 23.98" style="enable-background:new 0 0 19.66 23.98;" xml:space="preserve">
<style type="text/css">
	.st0{fill:#FFFFFF;}
</style>
<defs>
</defs>
<path class="st0" d="M18.99,16.5c-0.75-0.45-2.31-1.39-2.31-3.82c0-2.06,1.38-3.09,2.12-3.65l0.02-0.01
	c0.3-0.22,0.37-0.64,0.16-0.95c-1.65-2.48-4.49-2.55-5.04-2.54h0c-0.38,0-0.74,0.04-1.08,0.11c0.13-0.1,0.25-0.21,0.37-0.32
	C14.4,4.17,15.05,2.48,15,0.68C14.99,0.3,14.68,0,14.3,0c-1.28,0-2.73,0.76-3.79,1.99C9.43,3.23,8.93,4.72,9.13,6.06
	c0.02,0.11,0.06,0.21,0.12,0.3C9.07,6.3,8.87,6.23,8.67,6.16C7.93,5.88,7.09,5.57,6.3,5.57c-0.02,0-1.62,0.01-3.22,1.01
	C1.67,7.45,0,9.27,0,12.96c0,1.92,0.75,4.61,1.91,6.85c0.8,1.55,2.47,4.15,4.61,4.16h0.02c1.56,0,2.85-0.92,3.73-0.92
	c1.5,0,2.04,0.93,3.66,0.93c1.46,0,2.87-1.11,4.19-3.29c0.49-0.8,0.87-1.59,1.1-2.12c0.44-1,0.44-1.13,0.44-1.23
	C19.66,16.91,19.32,16.7,18.99,16.5z M11.57,2.91c0.58-0.67,1.3-1.16,1.99-1.38c-0.13,1.09-0.59,2.07-1.32,2.77
	c-0.51,0.49-1.12,0.81-1.74,0.92C10.57,4.45,10.94,3.64,11.57,2.91z M16.86,20.08c-1,1.61-2.04,2.5-2.92,2.5
	c-1.22,0-1.78-0.93-3.66-0.93c-1.27,0-2.47,0.93-3.75,0.92c-0.99-0.01-2.28-1.31-3.37-3.4c-1.07-2.06-1.75-4.49-1.75-6.21
	c0-2.43,0.8-4.16,2.37-5.16C5,7.02,6.25,6.98,6.3,6.98c1.1,0,2.62,0.97,3.73,0.97c1,0,2.34-1.02,3.91-1.02h0.03
	c0.38-0.01,2.18,0.04,3.44,1.41c-0.89,0.75-2.13,2.11-2.13,4.34c0,3.04,1.92,4.38,2.83,4.93C17.88,18.16,17.45,19.12,16.86,20.08z"
	/>
</svg>
