<!-- Generator: Adobe Illustrator 24.1.0, SVG Export Plug-In  -->
<svg version="1.1" xmlns="http://www.w3.org/2000/svg" xmlns:xlink="http://www.w3.org/1999/xlink" x="0px" y="0px" width="20.52px"
	 height="22.74px" viewBox="0 0 20.52 22.74" style="enable-background:new 0 0 20.52 22.74;" xml:space="preserve">
<style type="text/css">
	.st0{fill:#FFFFFF;}
</style>
<defs>
</defs>
<path class="st0" d="M19.26,9.2L3.74,0.33C3.36,0.11,2.93,0,2.5,0C2.06,0,1.63,0.12,1.25,0.34C0.48,0.78,0,1.61,0,2.5v17.74
	c0,0.89,0.48,1.72,1.25,2.16c0.38,0.22,0.81,0.34,1.25,0.34c0.43,0,0.86-0.11,1.24-0.33l15.52-8.87c0.78-0.44,1.26-1.28,1.26-2.17
	C20.52,10.48,20.04,9.65,19.26,9.2z M12.54,7.1l-2.13,2.97l-5.1-7.1L12.54,7.1z M2.4,21.22c-0.14-0.01-0.27-0.05-0.4-0.12
	c-0.3-0.18-0.49-0.5-0.49-0.85V2.5c0-0.35,0.19-0.68,0.49-0.85C2.13,1.58,2.26,1.54,2.4,1.52l7.07,9.85L2.4,21.22z M5.31,19.77
	l5.1-7.1l2.13,2.97L5.31,19.77z M18.51,12.23l-4.65,2.66l-2.52-3.51l2.52-3.51l4.65,2.66c0.31,0.17,0.5,0.5,0.5,0.85
	C19,11.72,18.81,12.05,18.51,12.23z"/>
</svg>
