<svg xmlns="http://www.w3.org/2000/svg" xmlns:xlink="http://www.w3.org/1999/xlink" viewBox="0 0 1084.09 662.96"><defs><style>.cls-1{fill:url(#linear-gradient);}.cls-2{fill:url(#linear-gradient-2);}.cls-3{fill:#fff;}.cls-4{fill:#98ad55;}.cls-5{fill:#4c5324;}</style><linearGradient id="linear-gradient" x1="-1178" y1="331.48" x2="2426.04" y2="331.48" gradientUnits="userSpaceOnUse"><stop offset="0" stop-color="#f0d192"/><stop offset="1" stop-color="#f6e0a4"/></linearGradient><linearGradient id="linear-gradient-2" x1="584.13" y1="732.68" x2="463.4" y2="342.64" xlink:href="#linear-gradient"/></defs><g id="Layer_2" data-name="Layer 2"><g id="Layer_2-2" data-name="Layer 2"><path class="cls-1" d="M925.69,404.85q-22.87-9.74-46.84-18.94-23.42-12.53-45.22-25.62,22.08,13.9,45.22,25.62s-131.29-51.58-192-77C601.3,273.08,402.77,145.66,343.51,0H0V663H1084.09V530.48C1044.7,483,992.8,436.73,925.69,404.85Z"/><path class="cls-2" d="M925.69,404.85q-22.87-9.74-46.84-18.94-23.42-12.53-45.22-25.62,22.08,13.9,45.22,25.62s-131.29-51.58-192-77C601.3,273.08,402.77,145.66,343.51,0H0V663H1084.09V530.48C1044.7,483,992.8,436.73,925.69,404.85Z"/><path class="cls-3" d="M1084.09,530.48V486c-46.6-28.81-99.77-56.2-158.4-81.12C992.8,436.73,1044.7,483,1084.09,530.48Z"/><path class="cls-4" d="M686.81,308.89c60.75,25.44,192,77,192,77q-23.15-11.69-45.22-25.62C667.33,260.56,568.89,137.15,503.91,0H343.51C402.77,145.66,601.3,273.08,686.81,308.89Z"/><path class="cls-5" d="M503.91,0c65,137.15,163.42,260.56,329.72,360.29q21.82,13.08,45.22,25.62,24,9.19,46.84,18.94c58.63,24.92,111.8,52.31,158.4,81.12V0Z"/></g></g></svg>