<!-- Generator: Adobe Illustrator 24.1.0, SVG Export Plug-In  -->
<svg version="1.1" xmlns="http://www.w3.org/2000/svg" xmlns:xlink="http://www.w3.org/1999/xlink" x="0px" y="0px"
	 width="164.05px" height="100.76px" viewBox="0 0 164.05 100.76" style="enable-background:new 0 0 164.05 100.76;"
	 xml:space="preserve">
<style type="text/css">
	.st0{fill:#77787B;}
</style>
<defs>
</defs>
<g>
	<g>
		<circle class="st0" cx="9" cy="2.05" r="2.05"/>
		<circle class="st0" cx="22.91" cy="2.05" r="2.05"/>
		<circle class="st0" cx="36.82" cy="2.05" r="2.05"/>
		<circle class="st0" cx="50.73" cy="2.05" r="2.05"/>
		<circle class="st0" cx="64.64" cy="2.05" r="2.05"/>
		<circle class="st0" cx="78.55" cy="2.05" r="2.05"/>
		<circle class="st0" cx="92.46" cy="2.05" r="2.05"/>
		<circle class="st0" cx="106.36" cy="2.05" r="2.05"/>
		<circle class="st0" cx="120.27" cy="2.05" r="2.05"/>
		<circle class="st0" cx="134.18" cy="2.05" r="2.05"/>
		<circle class="st0" cx="148.09" cy="2.05" r="2.05"/>
		<circle class="st0" cx="162" cy="2.05" r="2.05"/>
	</g>
	<g>
		<circle class="st0" cx="2.05" cy="15.86" r="2.05"/>
		<circle class="st0" cx="15.96" cy="15.86" r="2.05"/>
		<circle class="st0" cx="29.87" cy="15.86" r="2.05"/>
		<circle class="st0" cx="43.78" cy="15.86" r="2.05"/>
		<circle class="st0" cx="57.68" cy="15.86" r="2.05"/>
		<circle class="st0" cx="71.59" cy="15.86" r="2.05"/>
		<circle class="st0" cx="85.5" cy="15.86" r="2.05"/>
		<circle class="st0" cx="99.41" cy="15.86" r="2.05"/>
		<circle class="st0" cx="113.32" cy="15.86" r="2.05"/>
		<circle class="st0" cx="127.23" cy="15.86" r="2.05"/>
		<circle class="st0" cx="141.14" cy="15.86" r="2.05"/>
		<circle class="st0" cx="155.04" cy="15.86" r="2.05"/>
	</g>
	<g>
		<circle class="st0" cx="9" cy="29.67" r="2.05"/>
		<circle class="st0" cx="22.91" cy="29.67" r="2.05"/>
		<circle class="st0" cx="36.82" cy="29.67" r="2.05"/>
		<circle class="st0" cx="50.73" cy="29.67" r="2.05"/>
		<circle class="st0" cx="64.64" cy="29.67" r="2.05"/>
		<circle class="st0" cx="78.55" cy="29.67" r="2.05"/>
		<circle class="st0" cx="92.46" cy="29.67" r="2.05"/>
		<circle class="st0" cx="106.36" cy="29.67" r="2.05"/>
		<circle class="st0" cx="120.27" cy="29.67" r="2.05"/>
		<circle class="st0" cx="134.18" cy="29.67" r="2.05"/>
		<circle class="st0" cx="148.09" cy="29.67" r="2.05"/>
		<circle class="st0" cx="162" cy="29.67" r="2.05"/>
	</g>
	<g>
		<circle class="st0" cx="2.05" cy="43.48" r="2.05"/>
		<circle class="st0" cx="15.96" cy="43.48" r="2.05"/>
		<circle class="st0" cx="29.87" cy="43.48" r="2.05"/>
		<circle class="st0" cx="43.78" cy="43.48" r="2.05"/>
		<circle class="st0" cx="57.68" cy="43.48" r="2.05"/>
		<circle class="st0" cx="71.59" cy="43.48" r="2.05"/>
		<circle class="st0" cx="85.5" cy="43.48" r="2.05"/>
		<circle class="st0" cx="99.41" cy="43.48" r="2.05"/>
		<circle class="st0" cx="113.32" cy="43.48" r="2.05"/>
		<circle class="st0" cx="127.23" cy="43.48" r="2.05"/>
		<circle class="st0" cx="141.14" cy="43.48" r="2.05"/>
		<circle class="st0" cx="155.04" cy="43.48" r="2.05"/>
	</g>
	<g>
		<circle class="st0" cx="9" cy="57.29" r="2.05"/>
		<circle class="st0" cx="22.91" cy="57.29" r="2.05"/>
		<circle class="st0" cx="36.82" cy="57.29" r="2.05"/>
		<circle class="st0" cx="50.73" cy="57.29" r="2.05"/>
		<circle class="st0" cx="64.64" cy="57.29" r="2.05"/>
		<circle class="st0" cx="78.55" cy="57.29" r="2.05"/>
		<circle class="st0" cx="92.46" cy="57.29" r="2.05"/>
		<circle class="st0" cx="106.36" cy="57.29" r="2.05"/>
		<circle class="st0" cx="120.27" cy="57.29" r="2.05"/>
		<circle class="st0" cx="134.18" cy="57.29" r="2.05"/>
		<circle class="st0" cx="148.09" cy="57.29" r="2.05"/>
		<circle class="st0" cx="162" cy="57.29" r="2.05"/>
	</g>
	<g>
		<circle class="st0" cx="2.05" cy="71.1" r="2.05"/>
		<circle class="st0" cx="15.96" cy="71.1" r="2.05"/>
		<circle class="st0" cx="29.87" cy="71.1" r="2.05"/>
		<circle class="st0" cx="43.78" cy="71.1" r="2.05"/>
		<circle class="st0" cx="57.68" cy="71.1" r="2.05"/>
		<circle class="st0" cx="71.59" cy="71.1" r="2.05"/>
		<circle class="st0" cx="85.5" cy="71.1" r="2.05"/>
		<circle class="st0" cx="99.41" cy="71.1" r="2.05"/>
		<circle class="st0" cx="113.32" cy="71.1" r="2.05"/>
		<circle class="st0" cx="127.23" cy="71.1" r="2.05"/>
		<circle class="st0" cx="141.14" cy="71.1" r="2.05"/>
		<circle class="st0" cx="155.04" cy="71.1" r="2.05"/>
	</g>
	<g>
		<circle class="st0" cx="9" cy="84.9" r="2.05"/>
		<circle class="st0" cx="22.91" cy="84.9" r="2.05"/>
		<circle class="st0" cx="36.82" cy="84.9" r="2.05"/>
		<circle class="st0" cx="50.73" cy="84.9" r="2.05"/>
		<circle class="st0" cx="64.64" cy="84.9" r="2.05"/>
		<circle class="st0" cx="78.55" cy="84.9" r="2.05"/>
		<circle class="st0" cx="92.46" cy="84.9" r="2.05"/>
		<circle class="st0" cx="106.36" cy="84.9" r="2.05"/>
		<circle class="st0" cx="120.27" cy="84.9" r="2.05"/>
		<circle class="st0" cx="134.18" cy="84.9" r="2.05"/>
		<circle class="st0" cx="148.09" cy="84.9" r="2.05"/>
		<circle class="st0" cx="162" cy="84.9" r="2.05"/>
	</g>
	<g>
		<circle class="st0" cx="2.05" cy="98.71" r="2.05"/>
		<circle class="st0" cx="15.96" cy="98.71" r="2.05"/>
		<circle class="st0" cx="29.87" cy="98.71" r="2.05"/>
		<circle class="st0" cx="43.78" cy="98.71" r="2.05"/>
		<circle class="st0" cx="57.68" cy="98.71" r="2.05"/>
		<circle class="st0" cx="71.59" cy="98.71" r="2.05"/>
		<circle class="st0" cx="85.5" cy="98.71" r="2.05"/>
		<circle class="st0" cx="99.41" cy="98.71" r="2.05"/>
		<circle class="st0" cx="113.32" cy="98.71" r="2.05"/>
		<circle class="st0" cx="127.23" cy="98.71" r="2.05"/>
		<circle class="st0" cx="141.14" cy="98.71" r="2.05"/>
		<circle class="st0" cx="155.04" cy="98.71" r="2.05"/>
	</g>
</g>
</svg>
