<!-- Generator: Adobe Illustrator 24.1.0, SVG Export Plug-In  -->
<svg version="1.1" xmlns="http://www.w3.org/2000/svg" xmlns:xlink="http://www.w3.org/1999/xlink" x="0px" y="0px"
	 width="141.42px" height="86.87px" viewBox="0 0 141.42 86.87" style="enable-background:new 0 0 141.42 86.87;"
	 xml:space="preserve">
<style type="text/css">
	.st0{fill:#FFFFFF;}
</style>
<defs>
</defs>
<g>
	<g>
		<circle class="st0" cx="7.76" cy="1.77" r="1.77"/>
		<circle class="st0" cx="19.75" cy="1.77" r="1.77"/>
		<circle class="st0" cx="31.74" cy="1.77" r="1.77"/>
		<circle class="st0" cx="43.73" cy="1.77" r="1.77"/>
		<circle class="st0" cx="55.72" cy="1.77" r="1.77"/>
		<circle class="st0" cx="67.71" cy="1.77" r="1.77"/>
		<circle class="st0" cx="79.7" cy="1.77" r="1.77"/>
		<circle class="st0" cx="91.69" cy="1.77" r="1.77"/>
		<circle class="st0" cx="103.68" cy="1.77" r="1.77"/>
		<circle class="st0" cx="115.67" cy="1.77" r="1.77"/>
		<circle class="st0" cx="127.66" cy="1.77" r="1.77"/>
		<circle class="st0" cx="139.65" cy="1.77" r="1.77"/>
	</g>
	<g>
		<circle class="st0" cx="1.77" cy="13.67" r="1.77"/>
		<circle class="st0" cx="13.76" cy="13.67" r="1.77"/>
		<circle class="st0" cx="25.75" cy="13.67" r="1.77"/>
		<circle class="st0" cx="37.74" cy="13.67" r="1.77"/>
		<circle class="st0" cx="49.73" cy="13.67" r="1.77"/>
		<circle class="st0" cx="61.72" cy="13.67" r="1.77"/>
		<circle class="st0" cx="73.71" cy="13.67" r="1.77"/>
		<circle class="st0" cx="85.7" cy="13.67" r="1.77"/>
		<circle class="st0" cx="97.69" cy="13.67" r="1.77"/>
		<circle class="st0" cx="109.68" cy="13.67" r="1.77"/>
		<circle class="st0" cx="121.67" cy="13.67" r="1.77"/>
		<circle class="st0" cx="133.66" cy="13.67" r="1.77"/>
	</g>
	<g>
		<circle class="st0" cx="7.76" cy="25.58" r="1.77"/>
		<circle class="st0" cx="19.75" cy="25.58" r="1.77"/>
		<circle class="st0" cx="31.74" cy="25.58" r="1.77"/>
		<circle class="st0" cx="43.73" cy="25.58" r="1.77"/>
		<circle class="st0" cx="55.72" cy="25.58" r="1.77"/>
		<circle class="st0" cx="67.71" cy="25.58" r="1.77"/>
		<circle class="st0" cx="79.7" cy="25.58" r="1.77"/>
		<circle class="st0" cx="91.69" cy="25.58" r="1.77"/>
		<circle class="st0" cx="103.68" cy="25.58" r="1.77"/>
		<circle class="st0" cx="115.67" cy="25.58" r="1.77"/>
		<circle class="st0" cx="127.66" cy="25.58" r="1.77"/>
		<circle class="st0" cx="139.65" cy="25.58" r="1.77"/>
	</g>
	<g>
		<circle class="st0" cx="1.77" cy="37.48" r="1.77"/>
		<circle class="st0" cx="13.76" cy="37.48" r="1.77"/>
		<circle class="st0" cx="25.75" cy="37.48" r="1.77"/>
		<circle class="st0" cx="37.74" cy="37.48" r="1.77"/>
		<circle class="st0" cx="49.73" cy="37.48" r="1.77"/>
		<circle class="st0" cx="61.72" cy="37.48" r="1.77"/>
		<circle class="st0" cx="73.71" cy="37.48" r="1.77"/>
		<circle class="st0" cx="85.7" cy="37.48" r="1.77"/>
		<circle class="st0" cx="97.69" cy="37.48" r="1.77"/>
		<circle class="st0" cx="109.68" cy="37.48" r="1.77"/>
		<circle class="st0" cx="121.67" cy="37.48" r="1.77"/>
		<circle class="st0" cx="133.66" cy="37.48" r="1.77"/>
	</g>
	<g>
		<circle class="st0" cx="7.76" cy="49.38" r="1.77"/>
		<circle class="st0" cx="19.75" cy="49.38" r="1.77"/>
		<circle class="st0" cx="31.74" cy="49.38" r="1.77"/>
		<circle class="st0" cx="43.73" cy="49.38" r="1.77"/>
		<circle class="st0" cx="55.72" cy="49.38" r="1.77"/>
		<circle class="st0" cx="67.71" cy="49.38" r="1.77"/>
		<circle class="st0" cx="79.7" cy="49.38" r="1.77"/>
		<circle class="st0" cx="91.69" cy="49.38" r="1.77"/>
		<circle class="st0" cx="103.68" cy="49.38" r="1.77"/>
		<circle class="st0" cx="115.67" cy="49.38" r="1.77"/>
		<circle class="st0" cx="127.66" cy="49.38" r="1.77"/>
		<circle class="st0" cx="139.65" cy="49.38" r="1.77"/>
	</g>
	<g>
		<circle class="st0" cx="1.77" cy="61.29" r="1.77"/>
		<circle class="st0" cx="13.76" cy="61.29" r="1.77"/>
		<circle class="st0" cx="25.75" cy="61.29" r="1.77"/>
		<circle class="st0" cx="37.74" cy="61.29" r="1.77"/>
		<circle class="st0" cx="49.73" cy="61.29" r="1.77"/>
		<circle class="st0" cx="61.72" cy="61.29" r="1.77"/>
		<circle class="st0" cx="73.71" cy="61.29" r="1.77"/>
		<circle class="st0" cx="85.7" cy="61.29" r="1.77"/>
		<circle class="st0" cx="97.69" cy="61.29" r="1.77"/>
		<circle class="st0" cx="109.68" cy="61.29" r="1.77"/>
		<circle class="st0" cx="121.67" cy="61.29" r="1.77"/>
		<circle class="st0" cx="133.66" cy="61.29" r="1.77"/>
	</g>
	<g>
		<circle class="st0" cx="7.76" cy="73.19" r="1.77"/>
		<circle class="st0" cx="19.75" cy="73.19" r="1.77"/>
		<circle class="st0" cx="31.74" cy="73.19" r="1.77"/>
		<circle class="st0" cx="43.73" cy="73.19" r="1.77"/>
		<circle class="st0" cx="55.72" cy="73.19" r="1.77"/>
		<circle class="st0" cx="67.71" cy="73.19" r="1.77"/>
		<circle class="st0" cx="79.7" cy="73.19" r="1.77"/>
		<circle class="st0" cx="91.69" cy="73.19" r="1.77"/>
		<circle class="st0" cx="103.68" cy="73.19" r="1.77"/>
		<circle class="st0" cx="115.67" cy="73.19" r="1.77"/>
		<circle class="st0" cx="127.66" cy="73.19" r="1.77"/>
		<circle class="st0" cx="139.65" cy="73.19" r="1.77"/>
	</g>
	<g>
		<circle class="st0" cx="1.77" cy="85.1" r="1.77"/>
		<circle class="st0" cx="13.76" cy="85.1" r="1.77"/>
		<circle class="st0" cx="25.75" cy="85.1" r="1.77"/>
		<circle class="st0" cx="37.74" cy="85.1" r="1.77"/>
		<circle class="st0" cx="49.73" cy="85.1" r="1.77"/>
		<circle class="st0" cx="61.72" cy="85.1" r="1.77"/>
		<circle class="st0" cx="73.71" cy="85.1" r="1.77"/>
		<circle class="st0" cx="85.7" cy="85.1" r="1.77"/>
		<circle class="st0" cx="97.69" cy="85.1" r="1.77"/>
		<circle class="st0" cx="109.68" cy="85.1" r="1.77"/>
		<circle class="st0" cx="121.67" cy="85.1" r="1.77"/>
		<circle class="st0" cx="133.66" cy="85.1" r="1.77"/>
	</g>
</g>
</svg>
