<!-- Generator: Adobe Illustrator 24.1.0, SVG Export Plug-In  -->
<svg version="1.1" xmlns="http://www.w3.org/2000/svg" xmlns:xlink="http://www.w3.org/1999/xlink" x="0px" y="0px"
	 width="150.12px" height="150.12px" viewBox="0 0 150.12 150.12" style="enable-background:new 0 0 150.12 150.12;"
	 xml:space="preserve">
<style type="text/css">
	.st0{fill:#FFFFFF;}
	.st1{fill:#E33237;}
</style>
<defs>
</defs>
<circle class="st0" cx="75.06" cy="75.06" r="75.06"/>
<g>
	<path class="st1" d="M91.29,92.28l-2.01,0l0-33.07l2.01,0c4.61,0,8.34,3.73,8.34,8.34l0,16.39C99.63,88.55,95.89,92.28,91.29,92.28
		z"/>
	<path class="st1" d="M62.42,100.59L61,99.17l23.39-23.39l1.42,1.42c3.26,3.26,3.26,8.54,0,11.79l-11.59,11.59
		C70.96,103.85,65.68,103.85,62.42,100.59z"/>
	<path class="st1" d="M60.4,53.19l2.01,0c4.58,0,8.29,3.71,8.29,8.29l0,22.62c0,4.61-3.73,8.34-8.34,8.34h-2.01l0-39.21
		C60.36,53.21,60.38,53.19,60.4,53.19z"/>
	<path class="st1" d="M57.58,92.46l-2.01,0c-4.61,0-8.34-3.73-8.34-8.34l0-14.38l2.02,0c4.6,0,8.34,3.73,8.34,8.34L57.58,92.46z"/>
	<path class="st1" d="M73.37,49.23l0-2.01l17.71,0c4.61,0,8.34,3.73,8.34,8.34l0,2.01l-17.71,0C77.1,57.57,73.37,53.84,73.37,49.23z
		"/>
	<path class="st1" d="M83.91,93.91l13.56,0c2,0,3.62,1.62,3.62,3.62l0,1.75c0,2-1.62,3.62-3.62,3.62l-13.56,0
		c-2,0-3.62-1.62-3.62-3.62l0-1.75C80.29,95.53,81.91,93.91,83.91,93.91z"/>
</g>
</svg>
