<?xml version="1.0" encoding="utf-8"?>
<!-- Generator: Adobe Illustrator 22.0.0, SVG Export Plug-In . SVG Version: 6.00 Build 0)  -->
<svg version="1.1" id="Layer_1" xmlns="http://www.w3.org/2000/svg" xmlns:xlink="http://www.w3.org/1999/xlink" x="0px" y="0px"
	 viewBox="0 0 52.5 52" style="enable-background:new 0 0 52.5 52;" xml:space="preserve">
<style type="text/css">
	.st0{fill:#97AC55;}
	.st1{fill:#F3F4F5;}
	.st2{fill:url(#SVGID_1_);}
	.st3{fill:url(#SVGID_2_);}
	.st4{fill:#ACD03D;}
</style>
<g>
	<g>
		<path class="st0" d="M26.9,18l0.4-0.7c0.6-1.1,1.8-2.2,3.3-2.9c0.5-0.2,1.1-0.4,1.6-0.6c0.2-0.1,0.5-0.1,0.7-0.1
			c0.7-0.1,1.3-0.1,2.1,0c0.2,0,0.5,0.1,0.8,0.1c1.5,0.3,2.9,1.1,4,2.2l0.1,0.1c0.9,0.9,1.6,2.1,2,3.2c0.1,0.4,0.2,0.8,0.2,1.1
			l0.1,0.8l-0.8,0.3c-0.3,0.1-0.7,0.2-1,0.3c-0.6,0.2-1.3,0.2-1.9,0.3l-1.1,0l0-1.1c0-0.9-1-2.3-2.6-2.6c-1.6-0.3-3.1,0.6-3.4,1.4
			l-0.4,1l-1-0.5c-0.1,0-0.2-0.1-0.3-0.2c0,0-0.1,0-0.1-0.1c-0.2-0.1-0.4-0.2-0.5-0.3c-0.1-0.1-0.2-0.1-0.3-0.2l0,0
			c-0.1-0.1-0.2-0.1-0.2-0.2c0,0-0.1,0-0.1-0.1L28,18.9c-0.1,0-0.1-0.1-0.1-0.1l-0.1-0.1c-0.1-0.1-0.2-0.1-0.2-0.2L26.9,18z"/>
	</g>
	<g>
		<path class="st1" d="M49.4,23.8c-0.6,1.6-1.4,3.3-2.6,5c-1.3-1.5-3.1-2.8-5.3-3.2c-4.1-0.8-8.1,1.6-9.2,4.2
			c-0.2-0.1-0.3-0.2-0.5-0.2c-0.1,0-0.2-0.1-0.2-0.1c-0.3-0.2-0.7-0.4-1-0.6c-0.2-0.1-0.4-0.2-0.6-0.4c-0.2-0.1-0.4-0.3-0.6-0.4
			c-0.2-0.1-0.4-0.3-0.5-0.4c0,0,0,0,0,0c-0.2-0.1-0.4-0.3-0.5-0.4c-0.2-0.2-0.4-0.3-0.5-0.5c2.2-3.9,7.5-7.2,13.4-6.6
			c0.4,0,0.9,0.1,1.3,0.2C45.2,20.9,47.6,22.2,49.4,23.8z"/>
		<g>
			<linearGradient id="SVGID_1_" gradientUnits="userSpaceOnUse" x1="3.1094" y1="26.3685" x2="43.3733" y2="26.3685">
				<stop  offset="0" style="stop-color:#EFD091"/>
				<stop  offset="1" style="stop-color:#F5E0A3"/>
			</linearGradient>
			<path class="st2" d="M43.4,32.6C43.4,32.6,43.4,32.6,43.4,32.6c-1.6,1.3-3.3,2.4-5.1,3.3c-0.1-0.5-0.2-1.1-0.4-1.6
				c-0.8-2.5-2.3-4.9-4.3-6.9l0,0l-0.3-0.3c-2.5-2.3-5.5-3.9-8.8-4.5c-0.6-0.1-1.1-0.2-1.7-0.2c-0.1,0-0.1,0-0.2,0
				c-7.2-0.6-13.1,3.4-15.9,7.5c-0.1-0.1-0.2-0.2-0.3-0.3c-0.3-0.4-0.6-0.8-0.9-1.2c-0.1-0.2-0.3-0.4-0.4-0.5
				c-0.1-0.2-0.3-0.4-0.4-0.6c-0.1-0.2-0.3-0.4-0.4-0.6c-0.2-0.3-0.4-0.6-0.6-0.9c0-0.1-0.1-0.1-0.1-0.2c-0.2-0.3-0.3-0.5-0.5-0.8
				c0,0,0,0,0-0.1c7.1-6.6,14.3-8.6,21.1-7.7c0.4,0.1,0.9,0.1,1.3,0.2c4.6,0.9,9.8,3.5,13.1,6.7c0.9,1,1.6,1.9,2.2,2.8
				C42.9,30,43.3,32.4,43.4,32.6z"/>
			<linearGradient id="SVGID_2_" gradientUnits="userSpaceOnUse" x1="22.5211" y1="29.8079" x2="38.3221" y2="29.8079">
				<stop  offset="0" style="stop-color:#EFD091"/>
				<stop  offset="1" style="stop-color:#F5E0A3"/>
			</linearGradient>
			<path class="st3" d="M38.3,35.9c-0.2,0.1-0.5,0.2-0.7,0.4c-0.8,0.4-1.6,0.7-2.4,1c-0.1-0.6-0.2-1.3-0.4-1.9
				c-0.7-2-1.9-4.1-3.7-5.8c0,0,0,0,0,0c-1.9-1.8-4.3-3.1-7.2-3.7c-0.4-0.1-0.8-0.1-1.2-0.2c-0.1-1.1-0.2-2.2,0-3.3
				c0.1,0,0.1,0,0.2,0c0.5,0,1.1,0.1,1.7,0.2c3.3,0.6,6.3,2.2,8.8,4.5l0.3,0.3l0,0c2,2,3.5,4.4,4.3,6.9
				C38.1,34.8,38.2,35.3,38.3,35.9z"/>
			<path class="st4" d="M40.8,26.8c-0.6-0.9-1.3-1.8-2.2-2.8C39.4,24.9,40.2,25.8,40.8,26.8z"/>
			<path class="st0" d="M35.2,37.2c-0.6,0.2-1.3,0.4-1.9,0.6c-1.2,0.3-2.3,0.5-3.4,0.6c-0.1-2.8-3-6.5-7-7.2
				c-4.1-0.8-8.1,1.6-9.2,4.2c-0.2-0.1-0.3-0.2-0.5-0.2c-0.1,0-0.2-0.1-0.2-0.1c-0.3-0.2-0.7-0.4-1-0.6c-0.2-0.1-0.4-0.2-0.6-0.4
				c-0.2-0.1-0.4-0.3-0.6-0.4c-0.2-0.1-0.4-0.3-0.5-0.4c0,0,0,0,0,0c-0.2-0.1-0.4-0.3-0.5-0.4c-0.2-0.2-0.4-0.3-0.5-0.5
				c2.2-3.9,7.5-7.2,13.4-6.6c0.4,0,0.9,0.1,1.3,0.2c2.9,0.5,5.3,1.9,7.2,3.7c0,0,0,0,0,0c1.8,1.7,3.1,3.7,3.7,5.8
				C35,36,35.1,36.6,35.2,37.2z"/>
		</g>
	</g>
</g>
</svg>
