<?xml version="1.0" encoding="utf-8"?>
<!-- Generator: Adobe Illustrator 22.0.0, SVG Export Plug-In . SVG Version: 6.00 Build 0)  -->
<svg version="1.1" id="Layer_1" xmlns="http://www.w3.org/2000/svg" xmlns:xlink="http://www.w3.org/1999/xlink" x="0px" y="0px"
	 viewBox="0 0 52.5 52" style="enable-background:new 0 0 52.5 52;" xml:space="preserve">
<style type="text/css">
	.st0{fill:#97AC55;}
	.st1{fill:#F3F4F5;}
	.st2{fill:url(#SVGID_1_);}
	.st3{fill:#ACD03D;}
	.st4{fill:url(#SVGID_2_);}
	.st5{fill:url(#SVGID_3_);}
</style>
<g>
	<g>
		<path class="st0" d="M32,16.9l0.3-0.9c0.4-1.3,1.3-2.7,2.6-3.8c0.5-0.4,1-0.7,1.5-1c0.2-0.1,0.5-0.2,0.7-0.3
			c0.6-0.3,1.4-0.5,2.1-0.6c0.2,0,0.5-0.1,0.8-0.1c1.6-0.1,3.3,0.4,4.7,1.2l0.1,0.1c1.2,0.7,2.2,1.7,2.9,2.8
			c0.2,0.4,0.4,0.7,0.5,1.1l0.3,0.8l-0.7,0.5c-0.3,0.2-0.6,0.4-1,0.6c-0.6,0.3-1.2,0.6-1.9,0.8l-1.1,0.3l-0.3-1.1
			c-0.2-0.9-1.6-2.1-3.3-2c-1.7,0.1-3,1.4-3.2,2.3l-0.2,1.1l-1.1-0.2c-0.1,0-0.2-0.1-0.3-0.1c0,0-0.1,0-0.2,0
			c-0.2-0.1-0.4-0.1-0.6-0.2c-0.1,0-0.3-0.1-0.4-0.1l-0.1,0c-0.1,0-0.2-0.1-0.3-0.1c0,0-0.1,0-0.1,0l-0.4-0.2
			c-0.1,0-0.1-0.1-0.2-0.1l-0.1,0c-0.1-0.1-0.2-0.1-0.3-0.2L32,16.9z"/>
	</g>
	<g>
		<path class="st1" d="M45.6,17.1c-0.2-0.2-0.4-0.3-0.7-0.4c0,0,0,0,0,0c-0.3-0.1-0.6,0-0.8,0.2C44,16.9,44,17,43.9,17
			c-0.2,0.1-0.4,0.2-0.5,0.4l-0.2,0.1c-0.1,0.1-0.3,0.2-0.4,0.3c-0.2,0.1-0.3,0.3-0.5,0.4l-0.1,0c-0.2,0.2-0.4,0.3-0.6,0.5
			c-0.4,0.3-0.7,0.6-0.9,0.8c-0.1,0.1-0.2,0.1-0.2,0.2c-0.1,0.1-0.3,0.3-0.4,0.4l-0.5,0.5l0.5,0.4c2,1.7,2.9,5.9,1.1,9.3
			c-0.6,1.1-1.4,2-2.3,2.7c0.1,0.3,0.1,0.6,0.2,0.8c0.7,3.9,0.1,6.4,0,6.7l0.1,0c0.7-0.3,1.3-0.6,1.9-0.9l0.1,0
			c2.5-1.4,4.6-3.5,5.9-6.1c0.2-0.5,0.4-0.9,0.6-1.3C50.2,26.6,48.6,20.4,45.6,17.1z"/>
	</g>
	<linearGradient id="SVGID_1_" gradientUnits="userSpaceOnUse" x1="3.5324" y1="27.6467" x2="39.5179" y2="27.6467">
		<stop  offset="0" style="stop-color:#EFD091"/>
		<stop  offset="1" style="stop-color:#F5E0A3"/>
	</linearGradient>
	<path class="st2" d="M39.2,40.7C39.2,40.7,39.2,40.7,39.2,40.7c-1.9,0.5-3.9,0.8-5.8,1c-0.2,0-0.3,0-0.5,0c0,0,0,0,0,0
		c0.1-0.5,0.2-1.1,0.3-1.6c0.2-1.7,0.1-3.5-0.2-5.2c-0.1-0.3-0.1-0.7-0.2-1l-0.1-0.3c-0.2-0.7-0.4-1.4-0.7-2.1l0,0L31.8,31
		c-1.4-3.3-3.7-6.2-6.6-8.2c-0.5-0.4-1-0.7-1.5-1c-0.1,0-0.1-0.1-0.2-0.1c-6.8-3.7-14.2-2.4-18.7,0.4c0-0.1-0.1-0.3-0.1-0.4
		c-0.1-0.5-0.3-1-0.4-1.6c-0.1-0.2-0.1-0.5-0.2-0.7C4.1,19.2,4,19,4,18.7c0-0.3-0.1-0.5-0.1-0.8c-0.1-0.4-0.1-0.7-0.2-1.1
		c0-0.1,0-0.2,0-0.2c0-0.3-0.1-0.6-0.1-1c0,0,0,0,0-0.1c9.7-3.4,17.6-2.1,23.8,1.7c0.4,0.2,0.8,0.5,1.2,0.8c4.1,2.8,8,7.6,9.7,12.2
		c0.3,1,0.6,2,0.8,2.8c0.1,0.3,0.1,0.6,0.2,0.8C39.9,38,39.3,40.5,39.2,40.7z"/>
	<path class="st3" d="M38.1,41.6c-0.2,0-0.3,0-0.5,0c0,0,0,0,0-0.1c0,0,0,0,0,0C37.8,41.6,38,41.6,38.1,41.6z"/>
	<linearGradient id="SVGID_2_" gradientUnits="userSpaceOnUse" x1="22.0747" y1="31.7305" x2="33.2465" y2="31.7305">
		<stop  offset="0" style="stop-color:#EFD091"/>
		<stop  offset="1" style="stop-color:#F5E0A3"/>
	</linearGradient>
	<path class="st4" d="M33.2,40c0,0.6-0.1,1.1-0.3,1.6c0,0,0,0,0,0.1c-0.3,0-0.6,0-0.9,0c-0.9,0-1.9,0-2.8-0.1c0.2-0.6,0.3-1.3,0.4-2
		c0.2-2.3-0.1-4.8-1.1-7.2c0,0,0,0,0,0c-1-2.5-2.8-4.9-5.3-6.7c-0.4-0.3-0.7-0.5-1.1-0.7c0.3-1.1,0.8-2.2,1.4-3.3
		c0.1,0,0.1,0.1,0.2,0.1c0.5,0.3,1,0.6,1.5,1c2.9,2,5.2,4.9,6.6,8.2l0.1,0.4l0,0c0.3,0.7,0.5,1.4,0.7,2.1l0.1,0.3
		c0.1,0.3,0.2,0.7,0.2,1C33.3,36.5,33.3,38.2,33.2,40z"/>
	<linearGradient id="SVGID_3_" gradientUnits="userSpaceOnUse" x1="38.2259" y1="32.0974" x2="39.1808" y2="32.0974">
		<stop  offset="0" style="stop-color:#EFD091"/>
		<stop  offset="1" style="stop-color:#F5E0A3"/>
	</linearGradient>
	<path class="st5" d="M39.2,33.9c-0.2-1.1-0.5-2.3-1-3.7C38.7,31.5,39,32.8,39.2,33.9z"/>
	<path class="st0" d="M29.3,41.6c-0.7,0-1.4-0.1-2.1-0.2c-1.2-0.2-2.4-0.5-3.6-0.9c1.2-2.8-0.1-7.6-3.7-10.1
		c-3.6-2.5-8.6-2-10.7,0.1c-0.1-0.1-0.3-0.3-0.4-0.5c-0.1-0.1-0.1-0.1-0.2-0.2c-0.3-0.3-0.5-0.7-0.7-1c-0.1-0.2-0.3-0.4-0.4-0.6
		c-0.1-0.2-0.3-0.4-0.4-0.6c-0.1-0.2-0.2-0.4-0.4-0.6c0,0,0,0,0,0c-0.1-0.2-0.2-0.4-0.3-0.7c-0.1-0.2-0.2-0.5-0.3-0.7
		c3.8-2.8,10.4-3.7,15.8-0.6c0.4,0.2,0.8,0.5,1.2,0.8c2.5,1.8,4.3,4.1,5.3,6.7c0,0,0,0,0,0c1,2.4,1.3,5,1.1,7.2
		C29.6,40.3,29.4,41,29.3,41.6z"/>
</g>
</svg>
