<!-- Generator: Adobe Illustrator 24.1.0, SVG Export Plug-In  -->
<svg version="1.1" xmlns="http://www.w3.org/2000/svg" xmlns:xlink="http://www.w3.org/1999/xlink" x="0px" y="0px"
	 width="150.12px" height="150.12px" viewBox="0 0 150.12 150.12" style="enable-background:new 0 0 150.12 150.12;"
	 xml:space="preserve">
<style type="text/css">
	.st0{fill:#FFFFFF;}
	.st1{fill:#E33237;}
</style>
<defs>
</defs>
<circle class="st0" cx="75.06" cy="75.06" r="75.06"/>
<g>
	<g>
		<path class="st1" d="M94.23,93.41l-4.43,0l0-35.63l4.43,0c3.71,0,6.73,3.01,6.73,6.73l0,22.17
			C100.95,90.4,97.94,93.41,94.23,93.41z"/>
		<path class="st1" d="M62.47,93.27l-3.13-3.13l25.19-25.19l3.13,3.13c2.63,2.63,2.63,6.89,0,9.51L71.99,93.27
			C69.36,95.9,65.1,95.9,62.47,93.27z"/>
		<path class="st1" d="M37.57,48.3l3.13-3.13c2.61-2.61,6.85-2.61,9.46,0l20.41,20.41c2.63,2.63,2.63,6.89,0,9.51l-3.13,3.13
			L37.57,48.35C37.56,48.33,37.56,48.31,37.57,48.3z"/>
		<path class="st1" d="M62.21,83.48l3.13-3.13L48.04,63.04l-3.13,3.13c-2.63,2.63-2.63,6.88,0,9.51l7.8,7.8
			C55.33,86.11,59.59,86.11,62.21,83.48z"/>
		<path class="st1" d="M72.67,49.3l0-4.43l21.33,0c3.71,0,6.73,3.01,6.73,6.73l0,4.43l-21.33,0C75.68,56.03,72.67,53.01,72.67,49.3z
			"/>
		<path class="st1" d="M71.85,95.17l16.57,0c1.61,0,2.92,1.31,2.92,2.92l0,3.84c0,1.61-1.31,2.92-2.92,2.92l-16.57,0
			c-1.61,0-2.92-1.31-2.92-2.92l0-3.84C68.93,96.48,70.23,95.17,71.85,95.17z"/>
	</g>
</g>
</svg>
