<?xml version="1.0" encoding="utf-8"?>
<!-- Generator: Adobe Illustrator 22.0.0, SVG Export Plug-In . SVG Version: 6.00 Build 0)  -->
<svg version="1.1" id="Layer_1" xmlns="http://www.w3.org/2000/svg" xmlns:xlink="http://www.w3.org/1999/xlink" x="0px" y="0px"
	 viewBox="0 0 52.5 52" style="enable-background:new 0 0 52.5 52;" xml:space="preserve">
<style type="text/css">
	.st0{fill:url(#SVGID_1_);}
	.st1{fill:#97AC55;}
	.st2{fill:#F3F4F5;}
</style>
<g>
	<linearGradient id="SVGID_1_" gradientUnits="userSpaceOnUse" x1="7.195" y1="29.9575" x2="45.3278" y2="29.9575">
		<stop  offset="0" style="stop-color:#EFD091"/>
		<stop  offset="1" style="stop-color:#F5E0A3"/>
	</linearGradient>
	<path class="st0" d="M45.3,33.5C45.3,33.5,45.3,33.5,45.3,33.5c-1.2,1.4-2.6,2.8-4,3.9c-0.2-0.5-0.4-0.9-0.7-1.4
		c-1.2-2.2-3-4.1-5.1-5.5l0,0l-0.3-0.2c-2.7-1.7-5.7-2.6-8.8-2.6c-0.6,0-1.1,0-1.6,0.1c-0.1,0-0.1,0-0.2,0
		c-6.7,0.7-11.4,5.3-13.2,9.6c-0.1-0.1-0.2-0.2-0.3-0.2c-0.4-0.3-0.7-0.6-1.1-0.9c-0.2-0.1-0.3-0.3-0.5-0.4
		c-0.2-0.2-0.3-0.3-0.5-0.5c-0.2-0.2-0.3-0.3-0.5-0.5c-0.2-0.2-0.4-0.5-0.7-0.7c0-0.1-0.1-0.1-0.1-0.2c-0.2-0.2-0.4-0.4-0.6-0.6
		c0,0,0,0,0,0C12.5,26,18.8,23,25.1,22.6c0.4,0,0.8,0,1.2,0c4.4,0,9.5,1.5,13.1,3.9c1,0.7,1.8,1.5,2.5,2.2
		C44.5,31.2,45.3,33.3,45.3,33.5z"/>
	<path class="st1" d="M38.6,39.1C38,39.5,37.5,39.7,37,40c-1,0.5-2,0.9-3,1.1c-0.5-2.6-3.8-5.4-7.7-5.4c-3.8,0-7.1,2.8-7.7,5.4
		c-0.2,0-0.3-0.1-0.5-0.1c-0.1,0-0.2,0-0.2-0.1c-0.3-0.1-0.7-0.2-1-0.4c-0.2-0.1-0.4-0.2-0.6-0.2c-0.2-0.1-0.4-0.2-0.6-0.3
		c-0.2-0.1-0.4-0.2-0.6-0.3c0,0,0,0,0,0c-0.2-0.1-0.4-0.2-0.6-0.3c-0.2-0.1-0.4-0.2-0.6-0.3c1.3-3.9,5.6-7.8,11.1-8.4
		c0.4,0,0.8-0.1,1.3-0.1c2.7,0,5.2,0.8,7.2,2.1c0,0,0,0,0,0c1.9,1.2,3.4,2.9,4.4,4.6C38.2,38,38.4,38.6,38.6,39.1z"/>
	<path class="st2" d="M13.9,12.9c0.5-0.3,1.1-0.6,1.6-0.9c1-0.5,2-0.9,3-1.1c0.6,2.6,3.8,5.4,7.7,5.4c3.8,0,7.1-2.9,7.7-5.4
		c0.2,0,0.3,0.1,0.5,0.1c0.1,0,0.2,0,0.2,0.1c0.3,0.1,0.7,0.2,1,0.4c0.2,0.1,0.4,0.1,0.6,0.2c0.2,0.1,0.4,0.2,0.6,0.3
		c0.2,0.1,0.4,0.2,0.6,0.3c0,0,0,0,0,0c0.2,0.1,0.4,0.2,0.6,0.3c0.2,0.1,0.4,0.2,0.6,0.3c-1.3,3.9-5.6,7.9-11.1,8.4
		c-0.4,0-0.8,0.1-1.3,0.1c-2.7,0-5.2-0.8-7.2-2.1c0,0,0,0,0,0c-1.9-1.2-3.4-2.9-4.4-4.6C14.4,14,14.1,13.4,13.9,12.9z"/>
</g>
</svg>
