<!-- Generator: Adobe Illustrator 24.1.0, SVG Export Plug-In  -->
<svg version="1.1" xmlns="http://www.w3.org/2000/svg" xmlns:xlink="http://www.w3.org/1999/xlink" x="0px" y="0px"
	 width="150.12px" height="150.12px" viewBox="0 0 150.12 150.12" style="enable-background:new 0 0 150.12 150.12;"
	 xml:space="preserve">
<style type="text/css">
	.st0{fill:#FFFFFF;}
	.st1{fill:#E33237;}
</style>
<defs>
</defs>
<g>
	<circle class="st0" cx="75.06" cy="75.06" r="75.06"/>
	<g>
		<path class="st1" d="M63.2,86.31l-2.14-2.14l25.68-25.68l2.14,2.14c3.26,3.26,3.26,8.54,0,11.79L75,86.31
			C71.74,89.57,66.46,89.57,63.2,86.31z"/>
		<path class="st1" d="M67.22,63.79l0,3.03l-36.31,0l0-3.03c0-4.61,3.73-8.34,8.34-8.34l19.63,0
			C63.49,55.45,67.22,59.18,67.22,63.79z"/>
		<path class="st1" d="M75.56,47.96l0-3.03l20.26,0c4.61,0,8.34,3.73,8.34,8.34l0,3.03l-20.26,0C79.3,56.3,75.56,52.57,75.56,47.96z
			"/>
		<path class="st1" d="M92.79,58.69l3.03,0c4.61,0,8.34,3.73,8.34,8.34l0,11.93c0,4.6-3.73,8.34-8.34,8.34l-3.03,0L92.79,58.69z"/>
		<path class="st1" d="M67.12,72.26l0-3.03l-20.25,0c-4.61,0-8.34,3.73-8.34,8.34l0,3.03l20.25,0
			C63.38,80.6,67.12,76.87,67.12,72.26z"/>
		<path class="st1" d="M89.86,85.97l0,15.6c0,2-1.62,3.62-3.62,3.62l-2.63,0c-2,0-3.62-1.62-3.62-3.62l0-15.6
			c0-2,1.62-3.62,3.62-3.62l2.63,0C88.24,82.35,89.86,83.97,89.86,85.97z"/>
	</g>
</g>
</svg>
